# xmcd
#
# Track frame offsets:
#	150
#	12432
#	24590
#	33970
#	41595
#	52757
#	62542
#	73570
#	85320
#	95382
#
# Disc length: 1402 seconds
#
# Revision: 1
# Processed by: cddbd v1.5.2PL0 Copyright (c) Steve Scherf et al.
# Submitted via: audiograbber 1.83.01
#
DISCID=7305780a
DTITLE=The Platters - Going Back To Detroit
DYEAR=1900
DGENRE=R&B
TTITLE0=With This Ring
TTITLE1=Get A Hold Of Yourself
TTITLE2=Shing-A-Ling-Doo
TTITLE3=We Ain't What We Was
TTITLE4=Going Back To Detroit
TTITLE5=Love Must Go On
TTITLE6=I Can't Get Used To Sharing You
TTITLE7=Why Do You Wanna Make Me Blue
TTITLE8=On The Top Of My Mind
TTITLE9=Run While It's Dark
EXTD=
EXTT0=
EXTT1=
EXTT2=
EXTT3=
EXTT4=
EXTT5=
EXTT6=
EXTT7=
EXTT8=
EXTT9=
PLAYORDER=
